# xmcd
#
# Track frame offsets:
#	150
#	12316
#	29949
#	42376
#	53877
#	69524
#	85239
#	101978
#	119082
#	133150
#	145191
#	157295
#	172743
#	185429
#	202265
#	219514
#	232775
#	247911
#	261745
#	274058
#
# Disc length: 3894 seconds
#
# Revision: 1
# Processed by: cddbd v1.5.1PL2 Copyright (c) Steve Scherf et al.
# Submitted via: EasyCDDAExtractor 6.5.7.1
#
DISCID=3b0f3414
DTITLE=CONJUNTO PRIMAVERA - DEJANDO HUELLAS
DYEAR=1900
DGENRE=
TTITLE0=UNA VEZ MAS
TTITLE1=NO TE PODIAS QUEDAR
TTITLE2=EL MAS TRISTE
TTITLE3=POR LAS CALLES DE CHIHUAHUA
TTITLE4=IRREMEDIABLEMENTE
TTITLE5=Y QUE ME IMPORTA
TTITLE6=PERDONAME MI AMOR
TTITLE7=ACTOS DE UN TONTO
TTITLE8=NO LE RUEGUES
TTITLE9=VETE CON EL MI AMOR
TTITLE10=ME NORTIE
TTITLE11=DERECHO A LA VIDA
TTITLE12=DE NUEVO A TU LADO
TTITLE13=NECESITO DECIRTE
TTITLE14=BORRACHO  (EN VIVO)
TTITLE15=AMIGA
TTITLE16=SI TE VUELVO A VER
TTITLE17=JUGANDO AL AMOR
TTITLE18=TENGO CELOS
TTITLE19=MEXICO RA,RA,RA
EXTD=
EXTT0=
EXTT1=
EXTT2=
EXTT3=
EXTT4=
EXTT5=
EXTT6=
EXTT7=
EXTT8=
EXTT9=
EXTT10=
EXTT11=
EXTT12=
EXTT13=
EXTT14=
EXTT15=
EXTT16=
EXTT17=
EXTT18=
EXTT19=
PLAYORDER=
